<svg xmlns="http://www.w3.org/2000/svg" version="1.1" xmlns:xlink="http://www.w3.org/1999/xlink" xmlns:svgjs="http://svgjs.dev/svgjs" width="1000" height="249" viewBox="0 0 1000 249"><g transform="matrix(1,0,0,1,-0.6060606060606233,0.6028983218269701)"><svg viewBox="0 0 396 99" data-background-color="#ffffff" preserveAspectRatio="xMidYMid meet" height="249" width="1000" xmlns="http://www.w3.org/2000/svg" xmlns:xlink="http://www.w3.org/1999/xlink"><defs></defs><g id="tight-bounds" transform="matrix(1,0,0,1,0.2400000000000091,-0.23970656169024096)"><svg viewBox="0 0 395.52 99.47941312338048" height="99.47941312338048" width="395.52"><g><svg viewBox="0 0 562.0364609474855 141.36088513601743" height="99.47941312338048" width="395.52"><g transform="matrix(1,0,0,1,0,19.536851708378684)"><svg viewBox="0 0 395.52 102.28718171926006" height="102.28718171926006" width="395.52"><g><svg viewBox="0 0 395.52 102.28718171926006" height="102.28718171926006" width="395.52"><g><svg viewBox="0 0 395.52 102.28718171926006" height="102.28718171926006" width="395.52"><g transform="matrix(1,0,0,1,0,0)"><svg width="395.52" viewBox="1.85 -35.2 137.84 35.650000000000006" height="102.28718171926006" data-palette-color="#72cdee"><g class="undefined-text-0" data-fill-palette-color="primary" id="text-0"><path d="M1.85-17.45Q1.85-22.55 4.23-26.6 6.6-30.65 10.68-32.93 14.75-35.2 19.6-35.2L19.6-35.2Q25.15-35.2 29.48-32.48 33.8-29.75 35.75-24.75L35.75-24.75 28.9-24.75Q27.55-27.5 25.15-28.85 22.75-30.2 19.6-30.2L19.6-30.2Q16.15-30.2 13.45-28.65 10.75-27.1 9.22-24.2 7.7-21.3 7.7-17.45L7.7-17.45Q7.7-13.6 9.22-10.7 10.75-7.8 13.45-6.23 16.15-4.65 19.6-4.65L19.6-4.65Q22.75-4.65 25.15-6 27.55-7.35 28.9-10.1L28.9-10.1 35.75-10.1Q33.8-5.1 29.48-2.4 25.15 0.3 19.6 0.3L19.6 0.3Q14.7 0.3 10.65-1.98 6.6-4.25 4.23-8.3 1.85-12.35 1.85-17.45L1.85-17.45ZM48.1-23.55Q49.35-25.65 51.42-26.83 53.5-28 56.35-28L56.35-28 56.35-22.1 54.9-22.1Q51.55-22.1 49.82-20.4 48.1-18.7 48.1-14.5L48.1-14.5 48.1 0 42.4 0 42.4-27.55 48.1-27.55 48.1-23.55ZM71.6 0.45Q68.35 0.45 65.77-0.73 63.2-1.9 61.7-3.93 60.2-5.95 60.1-8.45L60.1-8.45 66-8.45Q66.15-6.7 67.67-5.53 69.2-4.35 71.5-4.35L71.5-4.35Q73.9-4.35 75.22-5.28 76.55-6.2 76.55-7.65L76.55-7.65Q76.55-9.2 75.07-9.95 73.6-10.7 70.4-11.6L70.4-11.6Q67.3-12.45 65.35-13.25 63.4-14.05 61.97-15.7 60.55-17.35 60.55-20.05L60.55-20.05Q60.55-22.25 61.85-24.08 63.15-25.9 65.57-26.95 68-28 71.15-28L71.15-28Q75.85-28 78.72-25.63 81.6-23.25 81.8-19.15L81.8-19.15 76.1-19.15Q75.95-21 74.6-22.1 73.25-23.2 70.95-23.2L70.95-23.2Q68.7-23.2 67.5-22.35 66.3-21.5 66.3-20.1L66.3-20.1Q66.3-19 67.1-18.25 67.9-17.5 69.05-17.07 70.2-16.65 72.45-16L72.45-16Q75.45-15.2 77.37-14.38 79.3-13.55 80.7-11.95 82.1-10.35 82.15-7.7L82.15-7.7Q82.15-5.35 80.85-3.5 79.55-1.65 77.17-0.6 74.8 0.45 71.6 0.45L71.6 0.45ZM113.54-14.45Q113.54-12.9 113.34-11.65L113.34-11.65 92.29-11.65Q92.54-8.35 94.74-6.35 96.94-4.35 100.14-4.35L100.14-4.35Q104.74-4.35 106.64-8.2L106.64-8.2 112.79-8.2Q111.54-4.4 108.27-1.98 104.99 0.45 100.14 0.45L100.14 0.45Q96.19 0.45 93.07-1.33 89.94-3.1 88.17-6.33 86.39-9.55 86.39-13.8L86.39-13.8Q86.39-18.05 88.12-21.28 89.84-24.5 92.97-26.25 96.09-28 100.14-28L100.14-28Q104.04-28 107.09-26.3 110.14-24.6 111.84-21.53 113.54-18.45 113.54-14.45L113.54-14.45ZM92.34-16.25L107.59-16.25Q107.54-19.4 105.34-21.3 103.14-23.2 99.89-23.2L99.89-23.2Q96.94-23.2 94.84-21.33 92.74-19.45 92.34-16.25L92.34-16.25ZM129.14 0.45Q125.89 0.45 123.32-0.73 120.74-1.9 119.24-3.93 117.74-5.95 117.64-8.45L117.64-8.45 123.54-8.45Q123.69-6.7 125.22-5.53 126.74-4.35 129.04-4.35L129.04-4.35Q131.44-4.35 132.77-5.28 134.09-6.2 134.09-7.65L134.09-7.65Q134.09-9.2 132.62-9.95 131.14-10.7 127.94-11.6L127.94-11.6Q124.84-12.45 122.89-13.25 120.94-14.05 119.52-15.7 118.09-17.35 118.09-20.05L118.09-20.05Q118.09-22.25 119.39-24.08 120.69-25.9 123.12-26.95 125.54-28 128.69-28L128.69-28Q133.39-28 136.27-25.63 139.14-23.25 139.34-19.15L139.34-19.15 133.64-19.15Q133.49-21 132.14-22.1 130.79-23.2 128.49-23.2L128.49-23.2Q126.24-23.2 125.04-22.35 123.84-21.5 123.84-20.1L123.84-20.1Q123.84-19 124.64-18.25 125.44-17.5 126.59-17.07 127.74-16.65 129.99-16L129.99-16Q132.99-15.2 134.92-14.38 136.84-13.55 138.24-11.95 139.64-10.35 139.69-7.7L139.69-7.7Q139.69-5.35 138.39-3.5 137.09-1.65 134.72-0.6 132.34 0.45 129.14 0.45L129.14 0.45Z" fill="#72cdee" data-fill-palette-color="primary"></path></g></svg></g></svg></g></svg></g></svg></g><g transform="matrix(1,0,0,1,419.66754871155604,0)"><svg viewBox="0 0 142.3689122359294 141.36088513601743" height="141.36088513601743" width="142.3689122359294"><g><svg xmlns="http://www.w3.org/2000/svg" xmlns:xlink="http://www.w3.org/1999/xlink" version="1.0" x="0" y="0" viewBox="1.9532900000000026 2.030770000000002 20.092119999999994 19.949859999999994" enable-background="new 0 0 24 24" xml:space="preserve" height="141.36088513601743" width="142.3689122359294" class="icon-icon-0" data-fill-palette-color="accent" id="icon-0"><rect x="4.9" y="11.2" transform="matrix(0.7071 -0.7071 0.7071 0.7071 -4.9708 11.9996)" width="14.1" height="1.6" fill="#72cdee" data-fill-palette-color="accent"></rect><rect x="20.3" y="2.3" transform="matrix(0.7073 -0.707 0.707 0.7073 3.9631 15.698)" width="1.3" height="1.6" fill="#72cdee" data-fill-palette-color="accent"></rect><rect x="2.4" y="20.2" transform="matrix(-0.7073 0.707 -0.707 -0.7073 20.0312 33.5776)" width="1.3" height="1.6" fill="#72cdee" data-fill-palette-color="accent"></rect><rect x="15" y="2.9" transform="matrix(0.7075 -0.7067 0.7067 0.7075 -0.6013 13.8019)" width="2.8" height="9.4" fill="#72cdee" data-fill-palette-color="accent"></rect><rect x="17.9" y="1.9" transform="matrix(0.7075 -0.7068 0.7068 0.7075 2.0289 14.8932)" width="2.2" height="6.3" fill="#72cdee" data-fill-palette-color="accent"></rect><rect x="6.2" y="11.7" transform="matrix(-0.7075 0.7067 -0.7067 -0.7075 24.5923 22.5669)" width="2.8" height="9.4" fill="#72cdee" data-fill-palette-color="accent"></rect><rect x="3.9" y="15.9" transform="matrix(-0.7075 0.7068 -0.7068 -0.7075 21.96 28.9184)" width="2.2" height="6.3" fill="#72cdee" data-fill-palette-color="accent"></rect></svg></g></svg></g></svg></g></svg><rect width="395.52" height="99.47941312338048" fill="none" stroke="none" visibility="hidden"></rect></g></svg></g></svg>